STARTFONT 2.1
COMMENT  
COMMENT  WARNING:  This bdf file was generated from an X server using
COMMENT  xbdfdump.  The resulting font is subject to the same copyright,
COMMENT  license, and trademark restrictions as the original font.  The
COMMENT  author and distributors of xbdfdump disclaim all liability for
COMMENT  misuse of the program or its output.
COMMENT  
FONT -phaisarn-angsana-bold-r-normal--18-180-75-75-p-75-tis620-0
SIZE 18 75 75
FONTBOUNDINGBOX 43 53 -14 -16
STARTPROPERTIES 27
FOUNDRY "Phaisarn"
FAMILY_NAME "Angsana"
WEIGHT_NAME "bold"
SLANT "r"
SETWIDTH_NAME "normal"
ADD_STYLE_NAME ""
PIXEL_SIZE 18
POINT_SIZE 180
RESOLUTION_X 75
RESOLUTION_Y 75
SPACING "p"
AVERAGE_WIDTH 75
CHARSET_REGISTRY "tis620"
CHARSET_ENCODING "0"
COPYRIGHT "Angsana by Pt-TITech 1997"
RAW_PIXELSIZE 1000
RAW_POINTSIZE 0
RAW_ASCENT 0
RAW_DESCENT 0
RAW_AVERAGE_WIDTH 2994
FACE_NAME "Angsana Bold"
WEIGHT 10
X_HEIGHT 11
QUAD_WIDTH 15
FONT_ASCENT 35
FONT_DESCENT 10
_XMBDFED_INFO "Edited with xmbdfed 4.5."
ENDPROPERTIES
CHARS 195
STARTCHAR space
ENCODING 32
SWIDTH 320 0
DWIDTH 6 0
BBX 0 0 0 0
BITMAP
ENDCHAR
STARTCHAR exclam
ENCODING 33
SWIDTH 426 0
DWIDTH 8 0
BBX 3 16 2 0
BITMAP
E0
E0
E0
E0
E0
E0
40
40
40
40
00
00
40
E0
E0
40
ENDCHAR
STARTCHAR quotedbl
ENCODING 34
SWIDTH 693 0
DWIDTH 13 0
BBX 9 8 2 8
BITMAP
E100
E380
E380
E380
E380
4100
4100
4100
ENDCHAR
STARTCHAR numbersign
ENCODING 35
SWIDTH 640 0
DWIDTH 12 0
BBX 11 16 0 0
BITMAP
0840
08C0
18C0
18C0
1880
FFE0
FFE0
3180
3100
FFE0
FFE0
2300
6300
6300
4200
4200
ENDCHAR
STARTCHAR dollar
ENCODING 36
SWIDTH 640 0
DWIDTH 12 0
BBX 10 18 1 -2
BITMAP
0400
3F80
65C0
E4C0
E440
F400
7C00
7E00
3F00
0F80
07C0
07C0
85C0
85C0
C580
F780
3C00
0400
ENDCHAR
STARTCHAR percent
ENCODING 37
SWIDTH 1280 0
DWIDTH 24 0
BBX 20 17 2 -1
BITMAP
3C0300
660200
660400
E70C00
E70800
E71800
E63000
662000
186180
004660
00C660
018E70
010E70
030E70
020E70
040660
0C03C0
ENDCHAR
STARTCHAR ampersand
ENCODING 38
SWIDTH 1066 0
DWIDTH 20 0
BBX 18 16 1 0
BITMAP
01E000
067800
063800
0E3800
0E3000
0F6000
078440
0F8380
33C300
73E200
F1F400
F0FC00
F07C00
F87F40
7FDF80
1F0F00
ENDCHAR
STARTCHAR apostrophe
ENCODING 39
SWIDTH 373 0
DWIDTH 7 0
BBX 3 8 2 8
BITMAP
E0
E0
E0
E0
E0
40
40
40
ENDCHAR
STARTCHAR parenleft
ENCODING 40
SWIDTH 426 0
DWIDTH 8 0
BBX 7 21 1 -5
BITMAP
02
0C
18
30
70
70
60
E0
E0
E0
E0
E0
E0
E0
60
60
30
30
18
0C
02
ENDCHAR
STARTCHAR parenright
ENCODING 41
SWIDTH 426 0
DWIDTH 8 0
BBX 7 21 0 -5
BITMAP
80
60
30
18
18
0C
0C
0E
0E
0E
0E
0E
0E
0E
0C
1C
1C
18
30
60
80
ENDCHAR
STARTCHAR asterisk
ENCODING 42
SWIDTH 640 0
DWIDTH 12 0
BBX 9 9 1 7
BITMAP
1C00
1C00
C980
FF80
0800
1400
3600
6300
6300
ENDCHAR
STARTCHAR plus
ENCODING 43
SWIDTH 746 0
DWIDTH 14 0
BBX 13 12 0 2
BITMAP
0200
0200
0200
0200
0200
0200
FFF8
0200
0200
0200
0200
0200
ENDCHAR
STARTCHAR comma
ENCODING 44
SWIDTH 320 0
DWIDTH 6 0
BBX 4 8 1 -4
BITMAP
60
F0
F0
70
10
10
20
C0
ENDCHAR
STARTCHAR minus
ENCODING 45
SWIDTH 426 0
DWIDTH 8 0
BBX 7 2 1 4
BITMAP
FE
FE
ENDCHAR
STARTCHAR period
ENCODING 46
SWIDTH 320 0
DWIDTH 6 0
BBX 4 4 1 0
BITMAP
60
F0
F0
60
ENDCHAR
STARTCHAR slash
ENCODING 47
SWIDTH 373 0
DWIDTH 7 0
BBX 7 16 0 0
BITMAP
06
04
04
0C
08
08
18
10
10
30
20
20
60
40
40
C0
ENDCHAR
STARTCHAR 0
ENCODING 48
SWIDTH 640 0
DWIDTH 12 0
BBX 10 16 1 0
BITMAP
1C00
3700
6380
6380
6380
E3C0
E3C0
E3C0
E3C0
E3C0
E3C0
E380
6380
6380
3700
1C00
ENDCHAR
STARTCHAR 1
ENCODING 49
SWIDTH 640 0
DWIDTH 12 0
BBX 8 16 2 0
BITMAP
0C
3C
FC
1C
1C
1C
1C
1C
1C
1C
1C
1C
1C
1C
3C
FF
ENDCHAR
STARTCHAR 2
ENCODING 50
SWIDTH 640 0
DWIDTH 12 0
BBX 11 16 0 0
BITMAP
0F00
3F80
3FC0
47C0
43C0
01C0
0180
0180
0300
0300
0600
0C00
1820
3FC0
7FC0
FFC0
ENDCHAR
STARTCHAR 3
ENCODING 51
SWIDTH 640 0
DWIDTH 12 0
BBX 11 16 0 0
BITMAP
0F00
3F80
27C0
43C0
01C0
0380
0300
1FC0
07C0
01E0
01E0
00E0
00C0
60C0
F980
3E00
ENDCHAR
STARTCHAR 4
ENCODING 52
SWIDTH 640 0
DWIDTH 12 0
BBX 11 16 0 0
BITMAP
00C0
01C0
01C0
03C0
05C0
0DC0
19C0
31C0
21C0
41C0
FFE0
FFE0
01C0
01C0
01C0
01C0
ENDCHAR
STARTCHAR 5
ENCODING 53
SWIDTH 640 0
DWIDTH 12 0
BBX 10 16 1 0
BITMAP
1FC0
3F80
3F80
2000
4000
7E00
7F00
FF80
0FC0
03C0
01C0
00C0
0080
E080
FB00
3C00
ENDCHAR
STARTCHAR 6
ENCODING 54
SWIDTH 640 0
DWIDTH 12 0
BBX 10 16 1 0
BITMAP
01C0
0E00
1C00
3800
7000
7000
FF00
E380
E3C0
E3C0
E1C0
E1C0
61C0
7180
3300
1E00
ENDCHAR
STARTCHAR 7
ENCODING 55
SWIDTH 640 0
DWIDTH 12 0
BBX 11 16 1 0
BITMAP
7FE0
7FC0
7FC0
C0C0
8180
0180
0180
0300
0300
0300
0600
0600
0600
0C00
0C00
0C00
ENDCHAR
STARTCHAR 8
ENCODING 56
SWIDTH 640 0
DWIDTH 12 0
BBX 10 16 1 0
BITMAP
1E00
7380
61C0
E1C0
F1C0
F980
7F00
3F00
1F80
67C0
E3C0
E3C0
E1C0
E1C0
7380
3E00
ENDCHAR
STARTCHAR 9
ENCODING 57
SWIDTH 640 0
DWIDTH 12 0
BBX 10 16 1 0
BITMAP
1E00
2700
6380
E380
E3C0
E1C0
E1C0
F1C0
73C0
3FC0
0380
0780
0700
0E00
1800
E000
ENDCHAR
STARTCHAR colon
ENCODING 58
SWIDTH 426 0
DWIDTH 8 0
BBX 4 11 2 0
BITMAP
60
F0
F0
60
00
00
00
60
F0
F0
60
ENDCHAR
STARTCHAR semicolon
ENCODING 59
SWIDTH 426 0
DWIDTH 8 0
BBX 4 15 2 -4
BITMAP
60
F0
F0
60
00
00
00
60
F0
F0
F0
10
10
20
C0
ENDCHAR
STARTCHAR less
ENCODING 60
SWIDTH 746 0
DWIDTH 14 0
BBX 13 12 0 2
BITMAP
0008
0078
01E0
0780
1C00
F000
F000
3C00
0780
01E0
0078
0008
ENDCHAR
STARTCHAR equal
ENCODING 61
SWIDTH 746 0
DWIDTH 14 0
BBX 13 6 0 5
BITMAP
FFF8
0000
0000
0000
0000
FFF8
ENDCHAR
STARTCHAR greater
ENCODING 62
SWIDTH 746 0
DWIDTH 14 0
BBX 13 12 0 2
BITMAP
8000
F000
3C00
0F00
01E0
0078
0078
01C0
0F00
3C00
F000
8000
ENDCHAR
STARTCHAR question
ENCODING 63
SWIDTH 640 0
DWIDTH 12 0
BBX 10 16 1 0
BITMAP
1F00
6380
E3C0
E1C0
61C0
0180
0380
0600
0C00
0800
0000
0000
1C00
1E00
1E00
1C00
ENDCHAR
STARTCHAR at
ENCODING 64
SWIDTH 1173 0
DWIDTH 22 0
BBX 21 21 1 -5
BITMAP
00FC00
030300
0C00C0
180040
300020
607610
40DE10
418E10
C19E10
839C10
839C30
873C20
873820
877840
47B988
431E10
200010
300060
080080
070700
00F800
ENDCHAR
STARTCHAR A
ENCODING 65
SWIDTH 906 0
DWIDTH 17 0
BBX 17 16 0 0
BITMAP
008000
008000
01C000
01C000
03E000
03E000
04F000
04F000
08F800
087800
1FFC00
103C00
203E00
201E00
601F00
F87F80
ENDCHAR
STARTCHAR B
ENCODING 66
SWIDTH 853 0
DWIDTH 16 0
BBX 15 16 0 0
BITMAP
FFF0
1E78
1E3C
1E3C
1E3C
1E38
1E78
1FC0
1E78
1E3C
1E3E
1E1E
1E1E
1E3C
1E78
FFE0
ENDCHAR
STARTCHAR C
ENCODING 67
SWIDTH 906 0
DWIDTH 17 0
BBX 15 16 1 0
BITMAP
03E2
0F1E
1C06
3806
7802
7802
F000
F000
F000
F000
F000
7000
7802
3C06
1E18
03E0
ENDCHAR
STARTCHAR D
ENCODING 68
SWIDTH 906 0
DWIDTH 17 0
BBX 16 16 0 0
BITMAP
FFC0
1FF0
1E3C
1E1E
1E1E
1E1F
1E0F
1E0F
1E0F
1E0F
1E0F
1E0E
1E1E
1E1C
1E38
FFC0
ENDCHAR
STARTCHAR E
ENCODING 69
SWIDTH 853 0
DWIDTH 16 0
BBX 15 16 0 0
BITMAP
FFFC
1E0C
1E04
1E04
1E24
1E20
1E20
1EE0
1FE0
1E20
1E20
1E22
1E02
1E06
1E1E
FFFC
ENDCHAR
STARTCHAR F
ENCODING 70
SWIDTH 800 0
DWIDTH 15 0
BBX 13 16 1 0
BITMAP
FFF8
3C38
3C08
3C08
3C28
3C40
3C40
3CC0
3FC0
3CC0
3C40
3C40
3C00
3C00
3C00
FF00
ENDCHAR
STARTCHAR G
ENCODING 71
SWIDTH 1013 0
DWIDTH 19 0
BBX 17 16 1 0
BITMAP
03F100
0E1F00
1C0700
380300
780100
700100
F00000
F00000
F00000
F07F80
F00F00
700F00
780F00
380F00
1E0F00
03F800
ENDCHAR
STARTCHAR H
ENCODING 72
SWIDTH 1013 0
DWIDTH 19 0
BBX 17 16 1 0
BITMAP
FF7F80
3C1E00
3C1E00
3C1E00
3C1E00
3C1E00
3C1E00
3FFE00
3C1E00
3C1E00
3C1E00
3C1E00
3C1E00
3C1E00
3C1E00
FF7F80
ENDCHAR
STARTCHAR I
ENCODING 73
SWIDTH 480 0
DWIDTH 9 0
BBX 8 16 1 0
BITMAP
FF
3C
3C
3C
3C
3C
3C
3C
3C
3C
3C
3C
3C
3C
3C
FF
ENDCHAR
STARTCHAR J
ENCODING 74
SWIDTH 640 0
DWIDTH 12 0
BBX 12 16 0 0
BITMAP
0FF0
07C0
03C0
03C0
03C0
03C0
03C0
03C0
03C0
03C0
03C0
73C0
E3C0
F3C0
7780
1E00
ENDCHAR
STARTCHAR K
ENCODING 75
SWIDTH 1013 0
DWIDTH 19 0
BBX 18 16 1 0
BITMAP
FF1F80
3C0E00
3C0C00
3C1800
3C3000
3C4000
3CC000
3FC000
3DE000
3CF000
3CF800
3C7C00
3C3C00
3C1E00
3C1F00
FF3FC0
ENDCHAR
STARTCHAR L
ENCODING 76
SWIDTH 853 0
DWIDTH 16 0
BBX 15 16 0 0
BITMAP
FF80
1E00
1E00
1E00
1E00
1E00
1E00
1E00
1E00
1E00
1E02
1E02
1E02
1E06
1E0E
FFFC
ENDCHAR
STARTCHAR M
ENCODING 77
SWIDTH 1226 0
DWIDTH 23 0
BBX 21 16 1 0
BITMAP
FC03F8
3E03E0
3E03E0
2F05E0
2F05E0
2F0DE0
2789E0
2789E0
23D1E0
23D1E0
21E1E0
21E1E0
21E1E0
20C1E0
70C1E0
F847F8
ENDCHAR
STARTCHAR N
ENCODING 78
SWIDTH 906 0
DWIDTH 17 0
BBX 16 16 1 0
BITMAP
F81F
3C04
3E04
3F04
2F84
27C4
23C4
21E4
21F4
20FC
207C
203C
201C
200C
700C
F804
ENDCHAR
STARTCHAR O
ENCODING 79
SWIDTH 1013 0
DWIDTH 19 0
BBX 17 16 1 0
BITMAP
03E000
1E3C00
380E00
780F00
780F00
F80780
F00780
F00780
F00780
F00780
F00780
700F00
780F00
380E00
1E3C00
03E000
ENDCHAR
STARTCHAR P
ENCODING 80
SWIDTH 800 0
DWIDTH 15 0
BBX 13 16 1 0
BITMAP
FFC0
3CF0
3C78
3C78
3C78
3C78
3C70
3DE0
3E00
3C00
3C00
3C00
3C00
3C00
3C00
FF00
ENDCHAR
STARTCHAR Q
ENCODING 81
SWIDTH 1013 0
DWIDTH 19 0
BBX 17 20 1 -4
BITMAP
03E000
1E3C00
380E00
780F00
780F00
F00F80
F00780
F00780
F00780
F00780
F00780
700700
780F00
380E00
1C1C00
07F000
01E000
01F000
00FC00
003F00
ENDCHAR
STARTCHAR R
ENCODING 82
SWIDTH 906 0
DWIDTH 17 0
BBX 16 16 1 0
BITMAP
FFE0
3CF8
3C38
3C3C
3C3C
3C3C
3C38
3C78
3FE0
3DE0
3CF0
3C78
3C78
3C3C
3C3E
FF1F
ENDCHAR
STARTCHAR S
ENCODING 83
SWIDTH 693 0
DWIDTH 13 0
BBX 11 16 1 0
BITMAP
1E40
61C0
60C0
E040
E040
F800
7E00
3F80
1FC0
07E0
81E0
80E0
80E0
C0C0
F180
9F00
ENDCHAR
STARTCHAR T
ENCODING 84
SWIDTH 853 0
DWIDTH 16 0
BBX 15 16 1 0
BITMAP
FFFE
C78E
8786
8782
0780
0780
0780
0780
0780
0780
0780
0780
0780
0780
0780
1FE0
ENDCHAR
STARTCHAR U
ENCODING 85
SWIDTH 906 0
DWIDTH 17 0
BBX 17 16 0 0
BITMAP
FF8F80
1E0300
1E0200
1E0200
1E0200
1E0200
1E0200
1E0200
1E0200
1E0200
1E0200
1E0200
1E0200
0E0400
0F0C00
03F000
ENDCHAR
STARTCHAR V
ENCODING 86
SWIDTH 906 0
DWIDTH 17 0
BBX 17 16 0 0
BITMAP
FF0F80
7C0300
3C0200
3E0200
1E0400
1F0400
0F0800
0F0800
079000
079000
03E000
03E000
01C000
01C000
008000
008000
ENDCHAR
STARTCHAR W
ENCODING 87
SWIDTH 1280 0
DWIDTH 24 0
BBX 24 16 0 0
BITMAP
FEFF0F
7C3C06
3C3C04
3C1E04
1E1E04
1E1F08
1E1F08
0F2F90
0F2790
0747D0
07C3E0
07C3E0
0381C0
0381C0
010180
010080
ENDCHAR
STARTCHAR X
ENCODING 88
SWIDTH 906 0
DWIDTH 17 0
BBX 17 16 0 0
BITMAP
7F9F80
3E0600
1E0400
1F0800
0F9000
07A000
03C000
03E000
01E000
01F000
027800
047C00
083E00
101E00
301F00
FC7F80
ENDCHAR
STARTCHAR Y
ENCODING 89
SWIDTH 906 0
DWIDTH 17 0
BBX 17 16 0 0
BITMAP
FF0F80
7C0100
3E0200
1E0200
1F0400
0F8400
078800
07D000
03F000
01E000
01E000
01E000
01E000
01E000
01E000
0FFC00
ENDCHAR
STARTCHAR Z
ENCODING 90
SWIDTH 853 0
DWIDTH 16 0
BBX 16 16 0 0
BITMAP
3FFE
307C
2078
20F8
20F0
01E0
03E0
03C0
0780
0F80
0F01
1E01
3E03
3C02
7C0E
FFFE
ENDCHAR
STARTCHAR bracketleft
ENCODING 91
SWIDTH 426 0
DWIDTH 8 0
BBX 5 20 3 -4
BITMAP
F8
E0
E0
E0
E0
E0
E0
E0
E0
E0
E0
E0
E0
E0
E0
E0
E0
E0
E0
F8
ENDCHAR
STARTCHAR backslash
ENCODING 92
SWIDTH 373 0
DWIDTH 7 0
BBX 7 16 0 0
BITMAP
C0
40
40
60
20
20
30
10
10
18
08
08
0C
04
04
06
ENDCHAR
STARTCHAR bracketright
ENCODING 93
SWIDTH 426 0
DWIDTH 8 0
BBX 4 20 1 -4
BITMAP
F0
70
70
70
70
70
70
70
70
70
70
70
70
70
70
70
70
70
70
F0
ENDCHAR
STARTCHAR asciicircum
ENCODING 94
SWIDTH 746 0
DWIDTH 14 0
BBX 11 8 2 8
BITMAP
0400
0E00
0B00
1B00
3180
3180
60C0
C060
ENDCHAR
STARTCHAR underscore
ENCODING 95
SWIDTH 640 0
DWIDTH 12 0
BBX 13 1 0 -5
BITMAP
FFF8
ENDCHAR
STARTCHAR grave
ENCODING 96
SWIDTH 426 0
DWIDTH 8 0
BBX 5 4 0 12
BITMAP
F0
30
30
18
ENDCHAR
STARTCHAR a
ENCODING 97
SWIDTH 640 0
DWIDTH 12 0
BBX 11 11 1 0
BITMAP
3E00
6700
E380
E380
4780
1B80
7380
6380
E380
FFA0
71C0
ENDCHAR
STARTCHAR b
ENCODING 98
SWIDTH 693 0
DWIDTH 13 0
BBX 11 16 1 0
BITMAP
F000
7000
7000
7000
7000
7780
79C0
70E0
70E0
70E0
70E0
70E0
70C0
70C0
7980
4E00
ENDCHAR
STARTCHAR c
ENCODING 99
SWIDTH 586 0
DWIDTH 11 0
BBX 9 11 1 0
BITMAP
1E00
3300
6380
E380
E000
E000
F000
F000
7880
7F80
1E00
ENDCHAR
STARTCHAR d
ENCODING 100
SWIDTH 693 0
DWIDTH 13 0
BBX 12 16 1 0
BITMAP
07C0
01C0
01C0
01C0
01C0
3DC0
73C0
61C0
E1C0
E1C0
E1C0
E1C0
E1C0
71C0
77F0
39C0
ENDCHAR
STARTCHAR e
ENCODING 101
SWIDTH 586 0
DWIDTH 11 0
BBX 10 11 1 0
BITMAP
1E00
3300
6380
E380
FFC0
E000
E000
7040
7880
7F00
1C00
ENDCHAR
STARTCHAR f
ENCODING 102
SWIDTH 426 0
DWIDTH 8 0
BBX 9 16 1 0
BITMAP
1E00
3380
7380
7000
7000
FC00
7000
7000
7000
7000
7000
7000
7000
7000
7000
FC00
ENDCHAR
STARTCHAR g
ENCODING 103
SWIDTH 640 0
DWIDTH 12 0
BBX 11 16 1 -5
BITMAP
3FE0
6380
E1C0
E1C0
E1C0
6180
7380
1E00
2000
6000
FF80
7FE0
3FE0
C060
C0C0
3F00
ENDCHAR
STARTCHAR h
ENCODING 104
SWIDTH 693 0
DWIDTH 13 0
BBX 12 16 1 0
BITMAP
F000
7000
7000
7000
7000
7780
7DC0
71C0
71C0
71C0
71C0
71C0
71C0
71C0
71C0
FFF0
ENDCHAR
STARTCHAR i
ENCODING 105
SWIDTH 373 0
DWIDTH 7 0
BBX 6 16 0 0
BITMAP
38
3C
38
00
80
78
38
38
38
38
38
38
38
38
3C
FC
ENDCHAR
STARTCHAR j
ENCODING 106
SWIDTH 426 0
DWIDTH 8 0
BBX 7 21 -1 -5
BITMAP
0E
0E
0E
00
00
1E
0E
0E
0E
0E
0E
0E
0E
0E
0E
0E
0E
2E
CE
CC
38
ENDCHAR
STARTCHAR k
ENCODING 107
SWIDTH 693 0
DWIDTH 13 0
BBX 13 16 1 0
BITMAP
F000
7000
7000
7000
7000
71F0
70C0
7080
7100
7700
7F80
7380
73C0
71E0
70F0
FDF8
ENDCHAR
STARTCHAR l
ENCODING 108
SWIDTH 373 0
DWIDTH 7 0
BBX 6 16 1 0
BITMAP
F0
70
70
70
70
70
70
70
70
70
70
70
70
70
70
FC
ENDCHAR
STARTCHAR m
ENCODING 109
SWIDTH 1066 0
DWIDTH 20 0
BBX 18 11 1 0
BITMAP
F38F00
7FF780
71C380
71C380
71C380
71C380
71C380
71C380
71C380
71C380
FFFFC0
ENDCHAR
STARTCHAR n
ENCODING 110
SWIDTH 693 0
DWIDTH 13 0
BBX 12 11 1 0
BITMAP
F380
7FC0
79C0
71C0
71C0
71C0
71C0
71C0
71C0
71C0
FFF0
ENDCHAR
STARTCHAR o
ENCODING 111
SWIDTH 640 0
DWIDTH 12 0
BBX 10 11 1 0
BITMAP
1E00
7380
6180
E1C0
E1C0
E1C0
E1C0
E1C0
6180
7380
1E00
ENDCHAR
STARTCHAR p
ENCODING 112
SWIDTH 693 0
DWIDTH 13 0
BBX 12 16 0 -5
BITMAP
FBC0
3DE0
38E0
38F0
3870
3870
3870
3870
38F0
3CE0
3BC0
3800
3800
3800
3800
FC00
ENDCHAR
STARTCHAR q
ENCODING 113
SWIDTH 693 0
DWIDTH 13 0
BBX 12 16 1 -5
BITMAP
1E40
39C0
71C0
61C0
E1C0
E1C0
E1C0
E1C0
71C0
7BC0
3DC0
01C0
01C0
01C0
01C0
03F0
ENDCHAR
STARTCHAR r
ENCODING 114
SWIDTH 586 0
DWIDTH 11 0
BBX 10 11 1 0
BITMAP
F180
77C0
7980
7800
7000
7000
7000
7000
7000
7000
FC00
ENDCHAR
STARTCHAR s
ENCODING 115
SWIDTH 480 0
DWIDTH 9 0
BBX 7 11 1 0
BITMAP
7A
C6
C2
E2
F8
7E
3E
8E
86
C6
BC
ENDCHAR
STARTCHAR t
ENCODING 116
SWIDTH 426 0
DWIDTH 8 0
BBX 7 15 0 0
BITMAP
08
08
18
38
FE
38
38
38
38
38
38
38
38
3A
1C
ENDCHAR
STARTCHAR u
ENCODING 117
SWIDTH 693 0
DWIDTH 13 0
BBX 12 11 1 0
BITMAP
F3C0
71C0
71C0
71C0
71C0
71C0
71C0
71C0
71C0
7FC0
3DF0
ENDCHAR
STARTCHAR v
ENCODING 118
SWIDTH 640 0
DWIDTH 12 0
BBX 12 11 0 0
BITMAP
FC70
7820
3820
3C20
1C40
1E40
0E80
0F00
0F00
0600
0600
ENDCHAR
STARTCHAR w
ENCODING 119
SWIDTH 906 0
DWIDTH 17 0
BBX 17 11 0 0
BITMAP
FFF380
79E100
38E100
39F200
1DF200
1F7A00
1E7C00
0E3C00
0E3800
041800
041000
ENDCHAR
STARTCHAR x
ENCODING 120
SWIDTH 640 0
DWIDTH 12 0
BBX 11 11 1 0
BITMAP
FFC0
7900
3E00
3E00
1C00
0E00
0E00
1700
2380
6380
F7E0
ENDCHAR
STARTCHAR y
ENCODING 121
SWIDTH 640 0
DWIDTH 12 0
BBX 12 16 0 -5
BITMAP
FCF0
7860
3840
1C40
1C40
1C80
0E80
0F00
0700
0600
0600
0200
0200
7400
7400
3800
ENDCHAR
STARTCHAR z
ENCODING 122
SWIDTH 586 0
DWIDTH 11 0
BBX 10 11 0 0
BITMAP
7FC0
4380
4780
0F00
0E00
1E00
1C00
3C40
7840
71C0
FF80
ENDCHAR
STARTCHAR braceleft
ENCODING 123
SWIDTH 480 0
DWIDTH 9 0
BBX 7 21 2 -5
BITMAP
0E
18
38
38
38
38
38
38
38
60
80
60
38
38
38
38
38
38
38
18
06
ENDCHAR
STARTCHAR bar
ENCODING 124
SWIDTH 266 0
DWIDTH 5 0
BBX 1 21 2 -5
BITMAP
80
80
80
80
80
80
80
80
80
80
80
80
80
80
80
80
80
80
80
80
80
ENDCHAR
STARTCHAR braceright
ENCODING 125
SWIDTH 480 0
DWIDTH 9 0
BBX 7 21 1 -5
BITMAP
C0
30
38
38
38
38
38
38
38
0C
02
0C
38
38
38
38
38
38
38
30
E0
ENDCHAR
STARTCHAR asciitilde
ENCODING 126
SWIDTH 640 0
DWIDTH 12 0
BBX 13 3 0 5
BITMAP
7808
7FE8
80F0
ENDCHAR
STARTCHAR C001122
ENCODING 133
SWIDTH 1280 0
DWIDTH 24 0
BBX 20 4 2 0
BITMAP
606060
F0F0F0
F0F0F0
606060
ENDCHAR
STARTCHAR C001107
ENCODING 145
SWIDTH 426 0
DWIDTH 8 0
BBX 4 8 2 8
BITMAP
30
40
40
80
E0
F0
F0
60
ENDCHAR
STARTCHAR C001110
ENCODING 146
SWIDTH 426 0
DWIDTH 8 0
BBX 4 8 2 8
BITMAP
60
F0
F0
70
10
10
20
C0
ENDCHAR
STARTCHAR C001113
ENCODING 147
SWIDTH 640 0
DWIDTH 12 0
BBX 10 8 1 8
BITMAP
30C0
4100
4100
8200
E380
F3C0
F3C0
6180
ENDCHAR
STARTCHAR C001114
ENCODING 148
SWIDTH 640 0
DWIDTH 12 0
BBX 10 8 1 8
BITMAP
6180
F3C0
F3C0
71C0
1040
2080
2080
C300
ENDCHAR
STARTCHAR C001121
ENCODING 149
SWIDTH 426 0
DWIDTH 8 0
BBX 7 7 1 5
BITMAP
38
7C
FE
FE
FE
7C
38
ENDCHAR
STARTCHAR C001103
ENCODING 150
SWIDTH 640 0
DWIDTH 12 0
BBX 13 1 0 5
BITMAP
FFF8
ENDCHAR
STARTCHAR C001104
ENCODING 151
SWIDTH 1280 0
DWIDTH 24 0
BBX 25 1 0 5
BITMAP
FFFFFF80
ENDCHAR
STARTCHAR exclamdown
ENCODING 161
SWIDTH 746 0
DWIDTH 14 0
BBX 12 15 1 0
BITMAP
0F00
1FC0
31E0
60E0
FC70
3870
3870
3870
3870
3870
3870
3870
3870
3870
3860
ENDCHAR
STARTCHAR cent
ENCODING 162
SWIDTH 800 0
DWIDTH 15 0
BBX 13 15 1 0
BITMAP
3C18
7E38
4738
F738
8F38
8F38
7738
0738
0738
0738
0738
0738
0738
07B0
01E0
ENDCHAR
STARTCHAR sterling
ENCODING 163
SWIDTH 906 0
DWIDTH 17 0
BBX 14 15 1 0
BITMAP
320C
771C
7F9C
CB9C
8B9C
839C
8B9C
CB9C
7B9C
039C
039C
039C
039C
0398
00F0
ENDCHAR
STARTCHAR currency
ENCODING 164
SWIDTH 800 0
DWIDTH 15 0
BBX 12 15 1 0
BITMAP
0F00
3FC0
61E0
C0E0
BE70
F370
F170
7370
7E70
7070
7070
7070
7070
7070
7070
ENDCHAR
STARTCHAR yen
ENCODING 165
SWIDTH 800 0
DWIDTH 15 0
BBX 13 15 1 0
BITMAP
18C0
3FF0
6778
C238
8038
9E38
B138
F138
7138
7E38
7038
7038
7038
7038
7038
ENDCHAR
STARTCHAR brokenbar
ENCODING 166
SWIDTH 960 0
DWIDTH 18 0
BBX 16 15 1 0
BITMAP
2603
3F07
7B87
D387
C387
C387
5387
7387
3387
0387
0FE7
1BBF
138F
1387
0E03
ENDCHAR
STARTCHAR section
ENCODING 167
SWIDTH 640 0
DWIDTH 12 0
BBX 9 15 1 0
BITMAP
0E00
0F00
1180
1180
1380
0F80
0380
8380
C380
6380
3380
1B80
0F80
0780
0380
ENDCHAR
STARTCHAR diaeresis
ENCODING 168
SWIDTH 746 0
DWIDTH 14 0
BBX 11 15 1 0
BITMAP
1F00
3F80
63C0
01C0
70E0
98E0
8CE0
8CE0
7CE0
1CE0
1CE0
1CE0
1CE0
1CE0
0780
ENDCHAR
STARTCHAR copyright
ENCODING 169
SWIDTH 853 0
DWIDTH 16 0
BBX 13 15 1 0
BITMAP
0780
1FE0
20F0
7870
8870
8C70
8C70
7C70
1C70
1C70
1CF0
1FF0
1E48
1C58
1870
ENDCHAR
STARTCHAR ordfeminine
ENCODING 170
SWIDTH 800 0
DWIDTH 15 0
BBX 12 15 1 0
BITMAP
3070
7C70
9EE0
AEC0
AF80
EEC0
4EE0
0EE0
0EE0
0EE0
0EE0
0EE0
0EC0
0EC0
1F80
ENDCHAR
STARTCHAR guillemotleft
ENCODING 171
SWIDTH 906 0
DWIDTH 17 0
BBX 15 15 1 0
BITMAP
360E
770E
7F9C
CB9C
8BF8
8398
8B98
CB9C
3B9C
039C
039C
039C
0398
07F8
07F0
ENDCHAR
STARTCHAR notsign
ENCODING 172
SWIDTH 1013 0
DWIDTH 19 0
BBX 17 15 1 0
BITMAP
0F8180
3FE380
70F380
607380
FC7380
387380
387380
387380
387380
387380
38FF80
457780
457380
457380
38E180
ENDCHAR
STARTCHAR hyphen
ENCODING 173
SWIDTH 1066 0
DWIDTH 20 0
BBX 18 22 1 -7
BITMAP
1F80C0
3FC1C0
60F1C0
C071C0
FC71C0
7071C0
7071C0
7071C0
7071C0
7871C0
7E71C0
7171C0
7173C0
723F80
1E1E00
000000
002000
007380
007B80
005380
002700
003E00
ENDCHAR
STARTCHAR registered
ENCODING 174
SWIDTH 853 0
DWIDTH 16 0
BBX 14 22 1 -7
BITMAP
07C0
1878
103C
301C
3F1C
1C1C
1C1C
1C1C
1C1C
3C1C
DC1C
8C1C
9C1C
785C
319C
031C
0F9C
13DC
12FC
167C
0C3C
001C
ENDCHAR
STARTCHAR macron
ENCODING 175
SWIDTH 853 0
DWIDTH 16 0
BBX 14 22 1 -7
BITMAP
07E0
1878
103C
301C
3F1C
1C1C
1C1C
1C1C
1C1C
1C1C
7C1C
DC1C
8C1C
9C1C
791C
061C
0C1C
3C1C
4C1C
4FFC
331C
001C
ENDCHAR
STARTCHAR degree
ENCODING 176
SWIDTH 746 0
DWIDTH 14 0
BBX 12 22 1 -7
BITMAP
1E10
3FE0
63C0
7F00
63C0
01E0
78E0
88E0
8CE0
8CE0
7CE0
1CE0
1CE0
1FE0
07C0
0DC0
0B60
7A20
4E20
DDE0
74E0
07E0
ENDCHAR
STARTCHAR plusminus
ENCODING 177
SWIDTH 1013 0
DWIDTH 19 0
BBX 17 15 1 0
BITMAP
371F00
77B700
DBB380
8BA380
83E380
8BE380
8BC380
5BC380
3BC380
03C380
03C380
038380
038380
038380
038380
ENDCHAR
STARTCHAR twosuperior
ENCODING 178
SWIDTH 1120 0
DWIDTH 21 0
BBX 18 15 1 0
BITMAP
18C0C0
3DE1C0
7771C0
7239C0
E139C0
E739C0
E9B9C0
69B9C0
7339C0
3239C0
3E7FC0
3C7BC0
38B9C0
38F8C0
3870C0
ENDCHAR
STARTCHAR threesuperior
ENCODING 179
SWIDTH 1066 0
DWIDTH 20 0
BBX 18 15 1 0
BITMAP
1F0080
3FC180
61E380
C0F380
FC7380
707380
707380
707380
707380
707380
7E7F80
737E80
317C40
327440
1C7380
ENDCHAR
STARTCHAR acute
ENCODING 180
SWIDTH 800 0
DWIDTH 15 0
BBX 13 15 1 0
BITMAP
1F80
31F0
6078
6038
C038
C638
CB38
EB38
6338
6638
3438
3C38
3838
3838
3838
ENDCHAR
STARTCHAR mu
ENCODING 181
SWIDTH 800 0
DWIDTH 15 0
BBX 13 15 1 0
BITMAP
1DC0
3FF0
7278
6238
E038
E238
EF38
E338
7238
7638
3C38
3C38
3838
3838
3838
ENDCHAR
STARTCHAR paragraph
ENCODING 182
SWIDTH 800 0
DWIDTH 15 0
BBX 12 15 1 0
BITMAP
3F80
61E0
4070
C070
FC70
7070
7070
7070
7070
7070
7E70
7370
7170
3370
1E60
ENDCHAR
STARTCHAR periodcentered
ENCODING 183
SWIDTH 853 0
DWIDTH 16 0
BBX 14 15 1 0
BITMAP
7870
8CBC
8D9C
8D1C
7D1C
1F1C
1F1C
1E1C
1E1C
1E1C
1E1C
1E1C
1C1C
1C1C
1C1C
ENDCHAR
STARTCHAR cedilla
ENCODING 184
SWIDTH 746 0
DWIDTH 14 0
BBX 12 15 1 0
BITMAP
3C30
7FE0
59C0
FC00
FE00
1FE0
1CE0
1CE0
1CE0
1CE0
1CE0
1CE0
1CE0
1CE0
7FC0
ENDCHAR
STARTCHAR onesuperior
ENCODING 185
SWIDTH 906 0
DWIDTH 17 0
BBX 14 15 1 0
BITMAP
700C
981C
8C1C
9C1C
7C1C
1C1C
1C1C
1C1C
1C1C
1C1C
1DF8
1F3C
1C24
1C24
1C18
ENDCHAR
STARTCHAR masculine
ENCODING 186
SWIDTH 853 0
DWIDTH 16 0
BBX 14 15 1 0
BITMAP
781C
9C1C
8C1C
9C1C
7C1C
1C1C
1C1C
1C1C
1C1C
1C1C
1C1C
1C1C
1C1C
3FF8
3FF0
ENDCHAR
STARTCHAR guillemotright
ENCODING 187
SWIDTH 853 0
DWIDTH 16 0
BBX 14 24 1 0
BITMAP
000C
001C
001C
001C
001C
001C
001C
001C
001C
781C
9C1C
8C1C
9C1C
7C1C
1C1C
1C1C
1C1C
1C1C
1C1C
1C1C
1C1C
1C1C
1C3C
3FF8
ENDCHAR
STARTCHAR onequarter
ENCODING 188
SWIDTH 800 0
DWIDTH 15 0
BBX 13 15 1 0
BITMAP
7838
6438
C438
E438
F838
E238
E638
E738
ED38
E9B8
F0F8
F078
E038
E030
E030
ENDCHAR
STARTCHAR onehalf
ENCODING 189
SWIDTH 800 0
DWIDTH 15 0
BBX 13 24 1 0
BITMAP
0018
0038
0038
0038
0038
0038
0038
0038
0038
3838
6438
C438
E438
F838
E238
E638
E738
ED38
E9B8
F0F8
F078
E038
E030
E030
ENDCHAR
STARTCHAR threequarters
ENCODING 190
SWIDTH 960 0
DWIDTH 18 0
BBX 16 15 1 0
BITMAP
7047
98C7
8CA7
5CA7
7CA7
1DB7
1D17
1D17
1F1F
1E0F
1E0F
1E0F
1E0F
1C07
1C07
ENDCHAR
STARTCHAR questiondown
ENCODING 191
SWIDTH 960 0
DWIDTH 18 0
BBX 15 24 1 0
BITMAP
0006
000E
000E
000E
000E
000E
000E
000E
000E
70CE
58CE
8CCE
9CCE
7D2E
1D2E
1D2E
1D2E
1E1E
1E1E
1E1E
1E1E
1E1E
1C0E
1C0E
ENDCHAR
STARTCHAR Agrave
ENCODING 192
SWIDTH 853 0
DWIDTH 16 0
BBX 13 15 1 0
BITMAP
07C0
1C70
1070
3038
3F38
1C38
1C38
1C38
1C38
1C38
7C38
8C38
8C38
D830
7030
ENDCHAR
STARTCHAR Aacute
ENCODING 193
SWIDTH 853 0
DWIDTH 16 0
BBX 13 15 1 0
BITMAP
7018
9838
9C38
9C38
7C38
1C38
1C38
1C38
1C38
3E38
5F38
5DB8
5CF8
7878
3830
ENDCHAR
STARTCHAR Acircumflex
ENCODING 194
SWIDTH 746 0
DWIDTH 14 0
BBX 11 15 1 0
BITMAP
7860
E4E0
C4E0
E4E0
F8E0
E0E0
E0E0
78E0
78E0
E0E0
E0E0
E0E0
E0E0
F1E0
7FC0
ENDCHAR
STARTCHAR Atilde
ENCODING 195
SWIDTH 693 0
DWIDTH 13 0
BBX 11 15 1 0
BITMAP
0C20
3FC0
7300
7000
FE00
0780
0380
0380
0380
0380
0380
0F80
0980
0B80
0700
ENDCHAR
STARTCHAR Adiaeresis
ENCODING 196
SWIDTH 800 0
DWIDTH 15 0
BBX 12 23 1 -8
BITMAP
3F80
63E0
C0F0
C070
FC70
7070
7070
7070
7070
7070
7C70
7270
6270
3270
1C70
0070
0070
0070
0070
0070
0070
0070
0070
ENDCHAR
STARTCHAR Aring
ENCODING 197
SWIDTH 746 0
DWIDTH 14 0
BBX 12 15 1 0
BITMAP
1F00
61E0
80F0
0FF0
38F0
7070
7070
7070
7070
7070
7C70
7370
6170
3170
3E70
ENDCHAR
STARTCHAR AE
ENCODING 198
SWIDTH 853 0
DWIDTH 16 0
BBX 14 23 1 -8
BITMAP
07E0
1878
103C
301C
3F1C
1C1C
1C1C
1C1C
1C1C
1C1C
7C1C
8C1C
8C1C
881C
701C
001C
001C
001C
001C
001C
001C
001C
001C
ENDCHAR
STARTCHAR Ccedilla
ENCODING 199
SWIDTH 693 0
DWIDTH 13 0
BBX 11 15 1 0
BITMAP
3F00
61C0
80E0
00E0
00E0
00E0
00E0
00E0
00E0
00E0
07E0
0CE0
08E0
08E0
0780
ENDCHAR
STARTCHAR Egrave
ENCODING 200
SWIDTH 800 0
DWIDTH 15 0
BBX 13 15 1 0
BITMAP
0F38
31F0
60F0
C070
CEF0
B1F0
F170
7170
7E70
3870
3870
3870
3870
3870
3870
ENDCHAR
STARTCHAR Eacute
ENCODING 201
SWIDTH 853 0
DWIDTH 16 0
BBX 14 15 1 0
BITMAP
780C
9C1C
8C1C
9C1C
7C1C
1C1C
1F9C
1E5C
1E3C
1FDC
1C1C
1C1C
1C1C
1C1C
3FF8
ENDCHAR
STARTCHAR Ecircumflex
ENCODING 202
SWIDTH 800 0
DWIDTH 15 0
BBX 14 15 1 0
BITMAP
3F9C
63E8
80F0
1F70
39F0
7070
7070
7070
7070
7070
7C70
7270
7270
3C70
1C70
ENDCHAR
STARTCHAR Ediaeresis
ENCODING 203
SWIDTH 906 0
DWIDTH 17 0
BBX 14 15 1 0
BITMAP
7018
5824
8C24
8C24
5C38
3C78
1CD8
1F1C
1E1C
1E1C
1C1C
1C1C
1C1C
1C1C
1C1C
ENDCHAR
STARTCHAR Igrave
ENCODING 204
SWIDTH 1120 0
DWIDTH 21 0
BBX 19 15 1 0
BITMAP
704CE0
9853C0
8C53C0
9CEF00
7CA700
1CA700
1DB700
1D1700
1F1F00
1F1F00
1E0F00
1E0F00
1E0F00
1C0700
1C0700
ENDCHAR
STARTCHAR Iacute
ENCODING 205
SWIDTH 746 0
DWIDTH 14 0
BBX 12 15 1 0
BITMAP
1F00
61C0
C0E0
1C70
7270
7270
7270
7C70
7070
7070
7070
7070
3060
38E0
0F80
ENDCHAR
STARTCHAR Icircumflex
ENCODING 206
SWIDTH 746 0
DWIDTH 14 0
BBX 11 15 1 0
BITMAP
3E60
43E0
81C0
C3E0
3FE0
00E0
78E0
C4E0
C4E0
C4E0
F8E0
E0E0
E0C0
61C0
1F00
ENDCHAR
STARTCHAR Idiaeresis
ENCODING 207
SWIDTH 853 0
DWIDTH 16 0
BBX 12 15 3 0
BITMAP
01F0
03F0
0370
7270
F270
8670
8470
CC70
7870
0070
0070
0070
0070
0070
0070
ENDCHAR
STARTCHAR ETH
ENCODING 208
SWIDTH 693 0
DWIDTH 13 0
BBX 10 14 1 0
BITMAP
70C0
88C0
8980
8B80
7F00
3C00
0000
0000
70C0
88C0
8980
8B80
7F00
1C00
ENDCHAR
STARTCHAR Ntilde
ENCODING 209
SWIDTH 0 0
DWIDTH 0 0
BBX 13 6 -10 17
BITMAP
7038
8830
8870
70E0
3FC0
1F00
ENDCHAR
STARTCHAR Ograve
ENCODING 210
SWIDTH 533 0
DWIDTH 10 0
BBX 8 15 1 0
BITMAP
3C
CE
07
07
07
07
07
07
07
07
07
07
07
07
07
ENDCHAR
STARTCHAR Oacute
ENCODING 211
SWIDTH 533 0
DWIDTH 10 0
BBX 17 22 -8 0
BITMAP
700000
880000
880000
880000
700000
000000
000000
003E00
004700
000380
000380
000380
000380
000380
000380
000380
000380
000380
000380
000380
000380
000380
ENDCHAR
STARTCHAR Ocircumflex
ENCODING 212
SWIDTH 0 0
DWIDTH 0 0
BBX 13 7 -14 16
BITMAP
0F80
3FC0
7060
6030
FF90
0070
0018
ENDCHAR
STARTCHAR Otilde
ENCODING 213
SWIDTH 0 0
DWIDTH 0 0
BBX 12 8 -14 16
BITMAP
0060
1E60
3FE0
70E0
4060
FF20
00E0
0010
ENDCHAR
STARTCHAR Odiaeresis
ENCODING 214
SWIDTH 0 0
DWIDTH 0 0
BBX 13 9 -14 16
BITMAP
0060
0090
0F98
3FF0
70E0
4030
FF10
00F0
0018
ENDCHAR
STARTCHAR multiply
ENCODING 215
SWIDTH 0 0
DWIDTH 0 0
BBX 13 9 -13 16
BITMAP
0330
0330
0FB0
3FF0
30F0
6030
FF90
0070
0008
ENDCHAR
STARTCHAR Ooblique
ENCODING 216
SWIDTH 0 0
DWIDTH 0 0
BBX 6 7 -8 -8
BITMAP
78
98
8C
4C
7C
1C
1C
ENDCHAR
STARTCHAR Ugrave
ENCODING 217
SWIDTH 0 0
DWIDTH 0 0
BBX 8 7 -10 -8
BITMAP
67
97
97
77
37
3F
3E
ENDCHAR
STARTCHAR Uacute
ENCODING 218
SWIDTH 0 0
DWIDTH 0 0
BBX 4 5 -5 -6
BITMAP
60
F0
F0
F0
60
ENDCHAR
STARTCHAR Ucircumflex
ENCODING 219
SWIDTH 426 0
DWIDTH 8 0
BBX 0 0 0 0
BITMAP
ENDCHAR
STARTCHAR Udiaeresis
ENCODING 220
SWIDTH 426 0
DWIDTH 8 0
BBX 7 4 1 -4
BITMAP
FE
FE
82
82
ENDCHAR
STARTCHAR ssharp
ENCODING 223
SWIDTH 853 0
DWIDTH 16 0
BBX 15 20 0 -1
BITMAP
0180
0180
FFE0
3FF8
1D9C
1D9C
1D9C
1D9C
1D98
1DB0
1FE0
1DB8
1D9C
1D8E
1D8E
1D8E
1D9C
3DB8
FFE0
0180
ENDCHAR
STARTCHAR agrave
ENCODING 224
SWIDTH 320 0
DWIDTH 6 0
BBX 5 15 1 0
BITMAP
30
70
70
70
70
70
70
70
70
70
70
88
88
88
70
ENDCHAR
STARTCHAR aacute
ENCODING 225
SWIDTH 693 0
DWIDTH 13 0
BBX 12 15 1 0
BITMAP
6040
60C0
E1C0
E1C0
E1C0
E1C0
E1C0
E1C0
E1C0
E1C0
F1E0
9930
8910
9930
70E0
ENDCHAR
STARTCHAR acircumflex
ENCODING 226
SWIDTH 480 0
DWIDTH 9 0
BBX 11 25 -1 0
BITMAP
3820
7FC0
C780
6000
3800
1E00
0F00
0700
0700
0700
0700
0700
0700
0700
0700
0700
0700
0700
0700
0700
0700
0880
0880
0880
0700
ENDCHAR
STARTCHAR atilde
ENCODING 227
SWIDTH 480 0
DWIDTH 9 0
BBX 10 25 -2 0
BITMAP
1C00
7E00
CE00
A700
9700
D700
7700
2700
0700
0700
0700
0700
0700
0700
0700
0700
0700
0700
0700
0700
0780
04C0
0440
04C0
0380
ENDCHAR
STARTCHAR adiaeresis
ENCODING 228
SWIDTH 586 0
DWIDTH 11 0
BBX 12 25 -2 0
BITMAP
C100
3780
35C0
35C0
35C0
35C0
35C0
35C0
19C0
01C0
01C0
01C0
01C0
01C0
01C0
01C0
01C0
01C0
01C0
01C0
01E0
0130
0110
0130
00E0
ENDCHAR
STARTCHAR aring
ENCODING 229
SWIDTH 586 0
DWIDTH 11 0
BBX 8 22 1 -7
BITMAP
3C
CE
07
07
07
07
07
07
07
07
07
07
07
07
07
07
07
07
07
07
07
07
ENDCHAR
STARTCHAR ae
ENCODING 230
SWIDTH 640 0
DWIDTH 12 0
BBX 10 22 1 -7
BITMAP
2300
7780
DDC0
C9C0
81C0
81C0
89C0
C9C0
39C0
01C0
01C0
01C0
01C0
01C0
01C0
01C0
01C0
01C0
01C0
01C0
01C0
01C0
ENDCHAR
STARTCHAR ccedilla
ENCODING 231
SWIDTH 0 0
DWIDTH 0 0
BBX 10 8 -10 16
BITMAP
01C0
0380
7F00
E300
C380
7B80
7F80
1700
ENDCHAR
STARTCHAR egrave
ENCODING 232
SWIDTH 0 0
DWIDTH 0 0
BBX 3 5 -6 27
BITMAP
E0
E0
60
40
40
ENDCHAR
STARTCHAR eacute
ENCODING 233
SWIDTH 0 0
DWIDTH 0 0
BBX 8 6 -8 27
BITMAP
73
93
9A
76
3C
60
ENDCHAR
STARTCHAR ecircumflex
ENCODING 234
SWIDTH 0 0
DWIDTH 0 0
BBX 11 8 -9 29
BITMAP
0060
6660
7E40
D940
81C0
9980
5B00
3A00
ENDCHAR
STARTCHAR ediaeresis
ENCODING 235
SWIDTH 0 0
DWIDTH 0 0
BBX 6 6 -8 29
BITMAP
30
30
FC
FC
30
30
ENDCHAR
STARTCHAR igrave
ENCODING 236
SWIDTH 0 0
DWIDTH 0 0
BBX 5 7 -6 27
BITMAP
08
08
70
D0
90
D0
70
ENDCHAR
STARTCHAR iacute
ENCODING 237
SWIDTH 0 0
DWIDTH 0 0
BBX 5 5 -7 17
BITMAP
70
88
88
88
70
ENDCHAR
STARTCHAR icircumflex
ENCODING 238
SWIDTH 0 0
DWIDTH 0 0
BBX 8 7 -6 18
BITMAP
0F
30
3C
78
60
C0
78
ENDCHAR
STARTCHAR idiaeresis
ENCODING 239
SWIDTH 693 0
DWIDTH 13 0
BBX 12 11 1 1
BITMAP
1F80
2040
4020
8F90
9FD0
9FD0
9FD0
4F10
4020
3040
0F80
ENDCHAR
STARTCHAR eth
ENCODING 240
SWIDTH 746 0
DWIDTH 14 0
BBX 11 11 1 0
BITMAP
1F00
7180
60C0
C040
C060
C060
C060
C060
60C0
31C0
1F00
ENDCHAR
STARTCHAR ntilde
ENCODING 241
SWIDTH 693 0
DWIDTH 13 0
BBX 11 11 1 0
BITMAP
1F00
3FC0
61C0
E0E0
C060
CC20
DE20
CE20
7E40
38C0
0180
ENDCHAR
STARTCHAR ograve
ENCODING 242
SWIDTH 1013 0
DWIDTH 19 0
BBX 17 17 1 0
BITMAP
600000
F00000
700000
700000
700000
700000
71E700
73FF00
73FF80
771180
761180
74C980
74E980
72E980
71DB00
380200
1FFC00
ENDCHAR
STARTCHAR oacute
ENCODING 243
SWIDTH 960 0
DWIDTH 18 0
BBX 16 11 1 0
BITMAP
1F3C
7FFE
71E6
40C7
C0C3
8043
8C43
9E43
DE46
7C84
388C
ENDCHAR
STARTCHAR ocircumflex
ENCODING 244
SWIDTH 960 0
DWIDTH 18 0
BBX 16 17 1 0
BITMAP
0002
0003
0007
0006
001C
00F0
07C0
1E00
3870
70F8
F1B8
E1B8
E1C0
E0E0
7070
7FFF
3E07
ENDCHAR
STARTCHAR otilde
ENCODING 245
SWIDTH 1013 0
DWIDTH 19 0
BBX 16 17 1 0
BITMAP
0003
0003
01C3
0233
0237
03EC
00F8
0780
1E18
787C
70CE
E0C4
E0E0
F070
7878
7FFE
1F0E
ENDCHAR
STARTCHAR odiaeresis
ENCODING 246
SWIDTH 693 0
DWIDTH 13 0
BBX 13 17 -1 0
BITMAP
C000
E000
7000
3000
1000
1000
1000
3FC0
3870
0038
0018
1C18
3C18
3C18
1830
1870
0FC0
ENDCHAR
STARTCHAR division
ENCODING 247
SWIDTH 1013 0
DWIDTH 19 0
BBX 16 17 1 0
BITMAP
0030
0038
001C
000C
0006
0006
38E7
7DF3
7FFB
F73B
E21B
C11B
C01A
CC1E
4E14
7E3C
3C70
ENDCHAR
STARTCHAR oslash
ENCODING 248
SWIDTH 960 0
DWIDTH 18 0
BBX 16 17 1 0
BITMAP
0002
0003
0003
0003
0003
0007
1E06
3FCE
7FFC
F078
E000
C018
DC3C
FF3C
7F9C
71CC
38F8
ENDCHAR
STARTCHAR ugrave
ENCODING 249
SWIDTH 746 0
DWIDTH 14 0
BBX 12 17 1 0
BITMAP
0020
0030
0060
3FE0
7FC0
6000
3000
1FC0
3FC0
7000
E380
E3C0
E3C0
E0C0
71C0
3F80
0E00
ENDCHAR
STARTCHAR uacute
ENCODING 250
SWIDTH 960 0
DWIDTH 18 0
BBX 16 15 1 0
BITMAP
01E3
03E3
02E3
72E3
74E3
C4E3
C4E3
4CE3
78E3
00E3
00E3
00E3
00E3
00E3
00E3
ENDCHAR
STARTCHAR ucircumflex
ENCODING 251
SWIDTH 1600 0
DWIDTH 30 0
BBX 28 13 1 0
BITMAP
3F800000
60800000
40000000
C0000000
80000000
80000000
80118830
80119820
803BFC20
803E6660
C06243C0
60C00000
1F000000
ENDCHAR
STARTCHAR udiaeresis
ENCODING 252
SWIDTH 0 0
DWIDTH 0 0
BBX 7 8 -8 -16
BITMAP
78
8C
86
4E
7E
0E
0E
0E
ENDCHAR
STARTCHAR yacute
ENCODING 253
SWIDTH 0 0
DWIDTH 0 0
BBX 9 7 -10 -15
BITMAP
6380
9380
9380
9380
7380
1F80
1F00
ENDCHAR
STARTCHAR thorn
ENCODING 254
SWIDTH 0 0
DWIDTH 0 0
BBX 4 5 -6 -14
BITMAP
60
F0
F0
F0
60
ENDCHAR
ENDFONT
